<?xml version="1.0" encoding="utf-8"?>
<!DOCTYPE svg PUBLIC "-//W3C//DTD SVG 1.1//EN" "http://www.w3.org/Graphics/SVG/1.1/DTD/svg11.dtd">
<svg version="1.1" xmlns="http://www.w3.org/2000/svg" xmlns:xlink="http://www.w3.org/1999/xlink" x="0px" y="0px" width="180" height="180" viewBox="0 0 256 256" enable-background="new 0 0 256 256" xml:space="preserve">
  <metadata>Svg Vector Icons : http://www.onlinewebfonts.com/icon</metadata>
  <g>
    <g>
      <g>
        <path id="up-arrow" class="arrow" fill="transparent" stroke="#ff0000" stroke-width="10" d="M125.5,10.8c-0.9,0.8-24.6,34.1-32.2,45.4c-2,2.9-2,4.6-0.2,6.5l1.4,1.4h33.7h33.7l1.2-1.5c0.7-0.8,1.2-2,1.2-2.8c0-1-3.9-6.9-16.3-24.7c-8.9-12.8-16.8-23.7-17.5-24.3C128.9,9.7,127,9.6,125.5,10.8z " />
        <path id="left-arrow" class="arrow" fill="transparent" stroke="#ff0000" stroke-width="10" d="M56.1,93.4c-8.9,6-44.5,31.1-45.2,31.9c-1.2,1.4-1.2,4.4,0,5.6c0.5,0.5,11.3,8.1,24,17C50,158.4,58.4,164,59.4,164.2c1.2,0.2,1.8,0,3.1-1.2l1.6-1.4l0.1-32.2c0.1-17.7,0-32.9-0.1-33.8C63.4,91.8,59.9,90.8,56.1,93.4z" />
        <path id="right-arrow" class="arrow" fill="transparent" stroke="#ff0000" stroke-width="10" d="M193.2,93c-0.6,0.6-1.2,1.8-1.4,2.7c-0.1,0.9-0.2,16.1-0.1,33.8l0.1,32.2l1.6,1.4c1.3,1.1,1.9,1.4,3.1,1.2c2.2-0.4,48.1-32.5,49.1-34.4c0.8-1.6,0.5-3.6-0.9-4.9c-1.2-1.1-44.8-31.7-46.3-32.5C196.6,91.5,194.4,91.8,193.2,93z" />
        <path id="middle" class="arrow" fill="transparent" stroke="#ff0000" stroke-width="10" d="M125.2,110.2c-5.8,0.8-11.1,4.9-13.7,10.4c-1.1,2.3-1.2,3.2-1.2,7.5c0,4.5,0.1,5.2,1.3,7.6c1.8,3.7,4.9,6.7,8.7,8.5c2.9,1.4,3.6,1.5,7.6,1.5c4,0,4.8-0.1,7.5-1.5c3.7-1.7,6.9-4.9,8.8-8.6c1.3-2.4,1.4-3.1,1.4-7.6c0-4.1-0.2-5.3-1.1-7.3C141,113.3,133.4,109.1,125.2,110.2z" />
        <path id="down-arrow" class="arrow" fill="transparent" stroke="#ff0000" stroke-width="10" d="M94,192.4c-1.4,0.8-2.5,3.1-2.2,4.6c0.2,1.1,32.2,47.2,33.6,48.4c1.2,1,4.3,0.8,5.4-0.2c0.5-0.5,8.2-11.4,17.2-24.2c10.4-14.8,16.3-23.7,16.3-24.4c0-1.8-1.3-3.8-2.9-4.3c-1-0.4-11.3-0.5-33.8-0.5C100.5,191.7,95,191.8,94,192.4z" />
      </g>
    </g>
  </g>
</svg>